<?xml version="1.0" standalone="no"?><!DOCTYPE svg PUBLIC "-//W3C//DTD SVG 1.1//EN" "http://www.w3.org/Graphics/SVG/1.1/DTD/svg11.dtd"><svg t="1594316313240" class="icon" viewBox="0 0 1083 1024" version="1.1" xmlns="http://www.w3.org/2000/svg" p-id="2292" width="67.6875" height="64" xmlns:xlink="http://www.w3.org/1999/xlink"><defs><style type="text/css"></style></defs><path d="M269.213842 866.014797a437.797101 437.797101 0 1 0 515.22991-707.957165 437.797101 437.797101 0 1 0-515.22991 707.957165Z" fill="#E9EAEB" p-id="2293"></path><path d="M934.956522 311.652174H727.188406l-103.884058-133.565217H371.014493l-103.884058 133.565217h-103.884058c-25.228986 0-44.521739 19.292754-44.521739 44.521739v400.695652c0 25.228986 19.292754 44.521739 44.521739 44.521739h771.710145c25.228986 0 44.521739-19.292754 44.521739-44.521739V356.173913c0-25.228986-19.292754-44.521739-44.521739-44.521739z" fill="#FFFFFF" p-id="2294"></path><path d="M934.956522 816.231884H163.246377c-32.649275 0-59.362319-26.713043-59.362319-59.362319V356.173913c0-32.649275 26.713043-59.362319 59.362319-59.362319h96.463768l103.884058-133.565217h267.130435l103.884058 133.565217H934.956522c32.649275 0 59.362319 26.713043 59.362319 59.362319v400.695652c0 32.649275-26.713043 59.362319-59.362319 59.362319zM163.246377 326.492754c-16.324638 0-29.681159 13.356522-29.68116 29.681159v400.695652c0 16.324638 13.356522 29.681159 29.68116 29.68116h771.710145c16.324638 0 29.681159-13.356522 29.681159-29.68116V356.173913c0-16.324638-13.356522-29.681159-29.681159-29.681159H719.768116l-103.884058-133.565218h-237.449275l-103.884058 133.565218H163.246377z" fill="#2A5082" p-id="2295"></path><path d="M934.956522 267.130435h-29.68116v-14.84058h-74.202898v14.84058h-29.68116v-44.521739h133.565218z" fill="#2A5082" p-id="2296"></path><path d="M504.57971 519.42029m-207.768116 0a207.768116 207.768116 0 1 0 415.536232 0 207.768116 207.768116 0 1 0-415.536232 0Z" fill="#A3D4FF" p-id="2297"></path><path d="M504.57971 742.028986c-123.176812 0-222.608696-99.431884-222.608696-222.608696s99.431884-222.608696 222.608696-222.608696 222.608696 99.431884 222.608696 222.608696-99.431884 222.608696-222.608696 222.608696z m0-415.536232c-106.852174 0-192.927536 86.075362-192.927536 192.927536s86.075362 192.927536 192.927536 192.927536 192.927536-86.075362 192.927536-192.927536-86.075362-192.927536-192.927536-192.927536z" fill="#2A5082" p-id="2298"></path><path d="M504.57971 519.42029m-148.405797 0a148.405797 148.405797 0 1 0 296.811594 0 148.405797 148.405797 0 1 0-296.811594 0Z" fill="#FFFFFF" p-id="2299"></path><path d="M504.57971 682.666667c-90.527536 0-163.246377-72.718841-163.246377-163.246377s72.718841-163.246377 163.246377-163.246377 163.246377 72.718841 163.246377 163.246377-72.718841 163.246377-163.246377 163.246377z m0-296.811595c-74.202899 0-133.565217 59.362319-133.565217 133.565218s59.362319 133.565217 133.565217 133.565217 133.565217-59.362319 133.565218-133.565217-59.362319-133.565217-133.565218-133.565218z" fill="#2A5082" p-id="2300"></path><path d="M434.828986 494.191304l-28.197102-10.388405c14.84058-41.553623 53.426087-69.750725 97.947826-69.750725v29.681159c-31.165217 1.484058-59.362319 20.776812-69.750724 50.457971zM414.052174 571.362319c-8.904348-16.324638-13.356522-34.133333-13.356522-51.942029h29.68116c0 13.356522 2.968116 25.228986 10.388405 37.101449l-26.713043 14.84058zM178.086957 371.014493h89.043478v29.681159h-89.043478z" fill="#2A5082" p-id="2301"></path><path d="M934.956522 801.391304h-133.565218V311.652174h133.565218c25.228986 0 44.521739 19.292754 44.521739 44.521739v400.695652c0 25.228986-19.292754 44.521739-44.521739 44.521739z" fill="#A3D4FF" p-id="2302"></path><path d="M934.956522 816.231884H786.550725V296.811594h148.405797c32.649275 0 59.362319 26.713043 59.362319 59.362319v400.695652c0 32.649275-26.713043 59.362319-59.362319 59.362319z m-118.724638-29.681159h118.724638c16.324638 0 29.681159-13.356522 29.681159-29.68116V356.173913c0-16.324638-13.356522-29.681159-29.681159-29.681159h-118.724638v460.057971z" fill="#2A5082" p-id="2303"></path><path d="M697.507246 682.666667h29.68116v29.681159h-29.68116z" fill="#2A5082" p-id="2304"></path></svg>