<?xml version="1.0" standalone="no"?><!DOCTYPE svg PUBLIC "-//W3C//DTD SVG 1.1//EN" "http://www.w3.org/Graphics/SVG/1.1/DTD/svg11.dtd"><svg t="1593705660412" class="icon" viewBox="0 0 1024 1024" version="1.1" xmlns="http://www.w3.org/2000/svg" p-id="5911" xmlns:xlink="http://www.w3.org/1999/xlink" width="200" height="200"><defs><style type="text/css"></style></defs><path d="M345.9 509.8H181.3c-7.9 0-14.3 6.1-14.3 13.7s6.4 13.7 14.3 13.7h164.5c7.9 0 14.3-6.1 14.3-13.7s-6.3-13.7-14.2-13.7zM263.6 552.1c-7.9 0-14.3 6.1-14.3 13.7v36.5c0 7.6 6.4 13.7 14.3 13.7s14.3-6.1 14.3-13.7v-36.5c0-7.6-6.4-13.7-14.3-13.7zM263.6 495c7.9 0 14.3-6.1 14.3-13.7v-36.5c0-7.6-6.4-13.7-14.3-13.7s-14.3 6.1-14.3 13.7v36.5c0 7.6 6.4 13.7 14.3 13.7z" fill="#333333" p-id="5912"></path><path d="M957.9 506.4c0-49.2-20.1-95.6-56.7-130.6-15-14.3-30.8-24.9-46.4-32.7-0.4-2-1.3-4-2.7-5.7l-61.3-76c-7.8-9.6-19.5-15.2-32.3-15.2-12.7 0-24.5 5.5-32.3 15.2l-48.5 60H534c28.2-40.5 17.9-67.1 1.4-96.3-13.5-23.7-25.1-44.2 4.3-87.3 4.3-6.3 2.4-14.8-4.2-19-6.6-4.1-15.5-2.3-19.8 4-38.7 56.8-20.3 89.3-5.5 115.4 13.8 24.4 24.1 42.6-12.2 83.2H344.3l-48.5-60.1c-7.8-9.6-19.5-15.2-32.3-15.2-12.7 0-24.5 5.5-32.3 15.2L170 337.4c-1.3 1.6-2.2 3.5-2.6 5.4-61.3 31-103.2 92.7-103.2 163.6v34.2c0 45.2 17.1 86.7 45.4 118.9l-34 74.5c-18.3 40.1 0 89.3 41.8 112 15.1 8.2 31.7 12.1 48 12.1 28.9 0 56.9-12.3 74-35l73.3-97.7h396.9l73.3 97.7c17 22.7 45.1 35 74 35 16.3 0 32.9-3.9 48-12.1 41.7-22.7 60.1-71.9 41.8-112l-34-74.5c28.3-32.2 45.4-73.7 45.4-118.9v-34.2zM748.8 278.2c4.7-5.8 14.6-5.7 19.3 0l38.8 48c-17.8-3.9-32.8-4.7-42.2-4.7h-50.8l34.9-43.3z m-494.8 0c4.6-5.8 14.6-5.8 19.3 0l35 43.3h-50.8c-14.4 0-28.4 1.5-41.9 4.4l38.4-47.7z m-37.9 529.1c-18.2 24.3-55.4 31-84.6 15-29.2-15.9-42.2-49.8-29.7-77.3l29.4-64.5c33.9 28 78 45 126.2 45h20l-61.3 81.8zM920.3 745c12.5 27.4-0.5 61.4-29.7 77.3-29.2 15.9-66.3 9.3-84.6-15l-61.3-81.7h20c48.2 0 92.3-17 126.2-45l29.4 64.4z m-5.4-204.4c0 79.3-67.4 143.8-150.2 143.8H257.4c-82.8 0-150.2-64.5-150.2-143.8v-34.2c0-79.3 67.4-143.8 150.2-143.8h507.3c14.6 0 65.3 3.2 106.1 42.3 28.5 27.3 44.2 63.3 44.2 101.5v34.2z" fill="#333333" p-id="5913"></path><path d="M593.3 614.3h-53.7c-7.9 0-14.3 6.1-14.3 13.7s6.4 13.7 14.3 13.7h53.7c7.9 0 14.3-6.1 14.3-13.7s-6.4-13.7-14.3-13.7zM482.4 614.3h-53.6c-7.9 0-14.3 6.1-14.3 13.7s6.4 13.7 14.3 13.7h53.6c7.9 0 14.3-6.1 14.3-13.7s-6.4-13.7-14.3-13.7zM671.2 506.2c-10 9.6-10.1 25.2-0.1 34.8 4.8 4.6 11.2 7.2 18.1 7.2h0.1c6.9 0 13.3-2.6 18.2-7.2 10-9.6 10.1-25.2 0.1-34.8-10.1-9.6-26.3-9.6-36.4 0zM733.2 446.8c-10 9.6-10.1 25.2-0.1 34.8 5 4.8 11.5 7.1 18.1 7.1 6.6 0 13.2-2.4 18.2-7.2 10-9.6 10.1-25.2 0.1-34.8-10-9.5-26.3-9.5-36.3 0.1zM733.2 565.5c-10 9.6-10.1 25.2-0.1 34.8 4.8 4.6 11.2 7.2 18.1 7.2h0.1c6.9 0 13.3-2.6 18.2-7.2 10-9.6 10.1-25.2 0.1-34.8-10.1-9.6-26.4-9.6-36.4 0zM795.2 506.2c-10 9.6-10.1 25.2-0.1 34.8 5 4.8 11.5 7.1 18.1 7.1 6.6 0 13.2-2.4 18.2-7.2 10-9.6 10.1-25.2 0.1-34.8-10-9.6-26.3-9.5-36.3 0.1z" fill="#333333" p-id="5914"></path></svg>